<?xml version="1.0" encoding="UTF-8"?>
<!-- Simple scalable favicon: flame + RFS initials. Keep path and viewBox simple so it works as apple-touch-icon and mask-icon. -->
<svg xmlns="http://www.w3.org/2000/svg" width="256" height="256" viewBox="0 0 256 256" role="img" aria-label="RFS Fire Break Calculator">
  <defs>
    <linearGradient id="g" x1="0" x2="1" y1="0" y2="1">
      <stop offset="0%" stop-color="#FF7043"/>
      <stop offset="100%" stop-color="#D84315"/>
    </linearGradient>
  </defs>
  <rect width="256" height="256" rx="32" fill="#0F1724" />
  <!-- stylized flame -->
  <g transform="translate(64,40) scale(0.75)">
    <path d="M64 0C52 24 36 36 36 64c0 18 12 36 28 48 16-12 28-30 28-48 0-18-8-30-28-64z" fill="url(#g)" />
    <path d="M64 28c-6 12-14 18-14 36 0 12 8 24 18 34 10-10 18-22 18-34 0-18-16-28-22-36z" fill="#FFF" opacity="0.15"/>
  </g>
  <!-- initials -->
  <text x="128" y="210" font-family="Segoe UI, Roboto, Arial, sans-serif" font-size="40" fill="#ffffff" text-anchor="middle" font-weight="700">RFS</text>
</svg>
